<svg width="100" height="100" viewBox="0 0 100 100" fill="none" xmlns="http://www.w3.org/2000/svg">
<g id="Frame 14" clip-path="url(#clip0_204_490)">
<g id="Group 14">
<path id="Vector" d="M91.9898 47.0323C90.6604 40.2115 83.5226 26.028 78.3278 16.303C74.9021 9.88108 68.8789 5.24869 61.7923 3.59207L50.3903 0.933304C24.3037 -5.15119 1.50984 19.5447 9.69067 45.0586C12.421 53.5565 14.6707 61.4101 15.8467 67.29C20.653 91.2905 17.1863 109.237 17.1863 109.237H56.1987L55.2885 96.2502C55.0943 93.5403 54.8693 90.2679 54.5932 86.3002C68.4904 87.6398 86.6518 89.2351 87.4596 83.6312C87.9914 79.909 86.5291 67.6582 85.4758 59.8353L84.5248 53.0349C84.5248 53.0349 85.1486 52.677 87.0506 51.1636C88.1959 50.2535 89.8014 48.9343 92 47.0323H91.9898Z" fill="url(#paint0_linear_204_490)"/>
<path id="Vector_2" d="M54.5932 86.3104C54.5932 86.3104 39.8779 81.3815 31.8402 75.2765C23.8026 69.1716 56.1986 109.237 56.1986 109.237L54.5932 86.3104Z" fill="url(#paint1_linear_204_490)"/>
<path id="Vector_3" d="M87.4497 83.6312C87.9814 79.9089 86.5191 67.6581 85.4658 59.8352L84.5148 53.0349C84.5148 53.0349 85.1386 52.677 87.0406 51.1635C88.186 50.2534 89.7914 48.9342 91.99 47.0322C90.6607 40.2114 83.5229 26.0279 78.3281 16.303C74.9023 9.88102 68.8792 5.24863 61.7926 3.59201L50.3905 0.933244C48.1408 0.411716 45.9218 0.125387 43.7334 0.0435791C44.03 10.6787 46.4842 33.0123 60.8313 50.8976C71.2107 63.8438 75.6182 77.5262 77.4691 87.5171C83.0525 87.2614 87.0816 86.2081 87.4497 83.6312Z" fill="#327AE7"/>
<path id="Vector_4" d="M87.4497 83.6312C87.9814 79.9089 86.5191 67.6581 85.4658 59.8352L84.5148 53.0349C84.5148 53.0349 85.1386 52.677 87.0406 51.1635C88.186 50.2534 89.7914 48.9342 91.99 47.0322C90.6607 40.2114 83.5229 26.0279 78.3281 16.303C74.9023 9.88102 68.8792 5.24863 61.7926 3.59201L50.3905 0.933244C48.1408 0.411716 45.9218 0.125387 43.7334 0.0435791C44.03 10.6787 46.4842 33.0123 60.8313 50.8976C71.2107 63.8438 75.6182 77.5262 77.4691 87.5171C83.0525 87.2614 87.0816 86.2081 87.4497 83.6312Z" fill="#327AE7"/>
</g>
</g>
<defs>
<linearGradient id="paint0_linear_204_490" x1="63.6432" y1="51.8692" x2="16.8284" y2="60.0091" gradientUnits="userSpaceOnUse">
<stop stop-color="#103C7E"/>
<stop offset="1" stop-color="#327AE7"/>
</linearGradient>
<linearGradient id="paint1_linear_204_490" x1="44.9909" y1="85.7991" x2="42.5469" y2="95.1559" gradientUnits="userSpaceOnUse">
<stop stop-color="#103C7E"/>
<stop offset="1" stop-color="#327AE7"/>
</linearGradient>
<clipPath id="clip0_204_490">
<rect width="100" height="100" fill="white"/>
</clipPath>
</defs>
</svg>
